<svg xmlns="http://www.w3.org/2000/svg" viewBox="0 -1326 1233 1234"><g transform="scale(1,-1)"><path fill="#8b949e" d="M1111 1326H122Q73 1326 36.5 1290.0Q0 1254 0 1204V214Q0 166 36.5 129.0Q73 92 122 92H1111Q1160 92 1196.5 129.0Q1233 166 1233 214V1204Q1233 1254 1196.5 1290.0Q1160 1326 1111 1326ZM784 584H802V214H431V584H452Q475 584 493.5 603.0Q512 622 512 648V1204H724V648Q724 622 742.5 603.0Q761 584 784 584ZM122 1204H295V648Q295 622 312.5 603.0Q330 584 356 584H371V214H122ZM1111 214H862V584H880Q906 584 923.5 603.0Q941 622 941 648V1204H1111Z"/></g></svg>