<svg xmlns="http://www.w3.org/2000/svg" viewBox="0 -1230.0 1232 1042.0"><g transform="scale(1,-1)"><path fill="#8b949e" d="M520 578Q608 578 728 550Q648 466 648 352Q648 264 700 188H0V320Q0 436 180.0 507.0Q360 578 520 578ZM520 710Q418 710 338.0 786.0Q258 862 258.0 968.0Q258 1074 336.0 1152.0Q414 1230 521.0 1230.0Q628 1230 704.0 1151.0Q780 1072 780.0 967.0Q780 862 704.0 786.0Q628 710 520 710ZM1008 840H1104H1232V710H1104V352Q1104 286 1056.0 237.0Q1008 188 941.0 188.0Q874 188 827.0 237.0Q780 286 780.0 353.0Q780 420 827.0 467.0Q874 514 940 514Q978 514 1008 502Z"/></g></svg>