<svg xmlns="http://www.w3.org/2000/svg" viewBox="0 -1264 1233 1110"><g transform="scale(1,-1)"><path fill="#8b949e" d="M892 154Q805 154 739 232Q684 298 638 428Q609 510 557 692Q496 902 462 992Q399 1138 338 1140Q246 1140 188 1030Q150 948 133 822Q121 752 121 708H0Q0 778 12 862Q38 1024 101 1124Q188 1264 338 1264Q425 1264 491 1186Q546 1120 595 986Q624 906 675 726V720Q733 516 768 428Q831 278 892 278Q987 278 1042 388Q1082 470 1100 596Q1109 662 1108 708H1233Q1233 640 1218 556Q1192 394 1129 294Q1042 154 892 154Z"/></g></svg>