<svg xmlns="http://www.w3.org/2000/svg" viewBox="0.0 -1326 1232.0 1234.0"><g transform="scale(1,-1)"><path fill="#8b949e" d="M226 932Q318 932 383.0 867.0Q448 802 448.0 710.0Q448 618 383.0 552.0Q318 486 225.0 486.0Q132 486 66.0 552.0Q0 618 0.0 710.0Q0 802 66.0 867.0Q132 932 226 932ZM616 1326Q708 1326 774.0 1260.0Q840 1194 840.0 1101.0Q840 1008 774.0 943.0Q708 878 616.0 878.0Q524 878 459.0 943.0Q394 1008 394.0 1101.0Q394 1194 459.0 1260.0Q524 1326 616 1326ZM616 542Q708 542 774.0 476.0Q840 410 840.0 317.0Q840 224 774.0 158.0Q708 92 616.0 92.0Q524 92 459.0 158.0Q394 224 394.0 317.0Q394 410 459.0 476.0Q524 542 616 542ZM1008 932Q1102 932 1167.0 867.0Q1232 802 1232.0 710.0Q1232 618 1167.0 552.0Q1102 486 1009.0 486.0Q916 486 850.0 552.0Q784 618 784.0 710.0Q784 802 850.0 867.0Q916 932 1008 932ZM1008 822Q962 822 930.0 789.0Q898 756 898.0 709.0Q898 662 930.0 629.0Q962 596 1008.0 596.0Q1054 596 1087.0 629.0Q1120 662 1120.0 709.0Q1120 756 1087.0 789.0Q1054 822 1008 822ZM616 428Q570 428 537.0 395.0Q504 362 504.0 317.0Q504 272 537.0 239.0Q570 206 617.0 206.0Q664 206 697.0 239.0Q730 272 730.0 317.0Q730 362 697.0 395.0Q664 428 616 428ZM616 1212Q570 1212 537.0 1180.0Q504 1148 504.0 1102.0Q504 1056 537.0 1023.0Q570 990 617.0 990.0Q664 990 697.0 1023.0Q730 1056 730.0 1102.0Q730 1148 697.0 1180.0Q664 1212 616 1212Z"/></g></svg>