<svg xmlns="http://www.w3.org/2000/svg" viewBox="0 -1095.0181818181818 1232 773.0181818181818"><g transform="scale(1,-1)"><path fill="#8b949e" d="M1224 922Q1166 856 1080 810Q980 760 880 760Q798 760 724 785Q682 797 612 835L550 860Q492 885 460 897Q402 914 344 913Q270 913 194 876Q132 843 86 798L0 930Q70 1000 148 1042Q248 1096 344 1095Q410 1095 476 1079Q512 1067 574 1038L682 992Q736 967 770 955Q824 938 880 938Q950 938 1030 980Q1088 1013 1138 1062ZM1232 487Q1162 417 1084 376Q984 322 890 322Q806 322 732 342Q690 359 620 392L550 425Q496 450 464 462Q410 479 352 479Q282 479 202 438Q144 405 96 355L8 495Q78 565 158 611Q256 665 352 665Q434 665 508 640Q550 628 620 591L682 566Q740 541 774 533Q832 516 890 516Q960 516 1038 558Q1096 591 1146 636Z"/></g></svg>