<svg xmlns="http://www.w3.org/2000/svg" viewBox="0 -1326 1233 1234"><g transform="scale(1,-1)"><path fill="#8b949e" d="M617 848Q675 848 715.0 807.0Q755 766 755.0 709.0Q755 652 714.5 611.0Q674 570 616.5 570.0Q559 570 519.0 611.0Q479 652 479.0 709.0Q479 766 519.0 807.0Q559 848 617 848ZM138 1326H1095Q1153 1326 1193.0 1286.0Q1233 1246 1233 1188V366H954Q1021 432 1058 521Q1095 608 1095 708Q1095 840 1030.5 949.0Q966 1058 857.0 1123.0Q748 1188 616.5 1188.0Q485 1188 376.0 1123.0Q267 1058 202.5 949.0Q138 840 138.0 709.0Q138 578 202.5 469.0Q267 360 376.0 295.0Q485 230 617 230H1233Q1233 172 1193.0 132.0Q1153 92 1095 92H138Q80 92 40.0 132.0Q0 172 0 230V1188Q0 1246 40.0 1286.0Q80 1326 138 1326Z"/></g></svg>