<svg xmlns="http://www.w3.org/2000/svg" viewBox="0.0 -1325.076923076923 1233.0 1233.076923076923"><g transform="scale(1,-1)"><path fill="#8b949e" d="M987 833V955H1111V833ZM987 709V833H862V709ZM987 955V1079H862V955ZM862 1273V1204H987Q926 1247 862 1273ZM987 1204V1079H1111Q1056 1149 987 1204ZM1111 1079V955H1181Q1154 1018 1111 1079ZM1233 709Q1233 770 1221 833H1111V709ZM862 1079V1204H741V1079ZM862 463H987V584H862ZM987 338H1111V463H987ZM862 214H987V338H862ZM741 104Q802 116 862 144V214H741ZM987 584H1111V709H987ZM862 955H741V833H862ZM1111 463H1181Q1210 524 1221 584H1111ZM862 709H741V584H862ZM617 338V463H741V584H617V709H741V833H617V955H741V1079H617V1204H741V1314Q677 1326 617 1325Q449 1325 307.0 1242.5Q165 1160 82.5 1018.5Q0 877 0.0 709.0Q0 541 82.5 399.0Q165 257 307.0 174.5Q449 92 617 92V214H741V338ZM741 338H862V463H741Z"/></g></svg>